<?xml version="1.0" standalone="no"?>
<!DOCTYPE svg PUBLIC "-//W3C//DTD SVG 20010904//EN"
 "http://www.w3.org/TR/2001/REC-SVG-20010904/DTD/svg10.dtd">
<svg version="1.0" xmlns="http://www.w3.org/2000/svg"
 width="567.000000pt" height="567.000000pt" viewBox="0 0 567.000000 567.000000"
 preserveAspectRatio="xMidYMid meet">

<g transform="translate(0.000000,567.000000) scale(0.100000,-0.100000)"
fill="#000000" stroke="none">
<path d="M2088 5185 c-10 -13 -18 -39 -18 -59 0 -58 67 -94 120 -66 13 7 26 7
37 1 10 -5 54 -24 98 -41 44 -18 98 -41 120 -53 122 -63 256 -182 323 -286 34
-53 82 -153 82 -171 0 -5 -79 -9 -188 -9 -235 0 -435 -22 -662 -71 -52 -11
-129 -27 -170 -35 -169 -31 -470 -145 -652 -246 -429 -238 -671 -556 -747
-983 -6 -33 -11 -113 -11 -178 l0 -118 -35 -46 c-20 -25 -43 -73 -52 -106 -12
-42 -25 -65 -45 -79 -79 -57 -128 -186 -128 -338 0 -129 41 -304 93 -391 14
-24 24 -71 34 -150 42 -359 134 -600 273 -709 78 -62 185 -83 307 -61 90 16
153 52 218 122 56 60 135 203 135 244 0 33 11 30 70 -14 71 -54 232 -135 326
-165 43 -14 118 -28 165 -32 48 -4 91 -10 98 -14 6 -4 16 -32 21 -63 6 -30 28
-108 49 -172 57 -172 157 -311 295 -412 91 -66 132 -77 294 -72 127 4 143 6
220 37 73 29 94 43 166 114 121 120 166 229 166 411 0 80 2 87 18 81 9 -4 51
-16 92 -27 108 -30 470 -37 638 -13 144 20 304 55 442 95 58 17 128 37 155 45
28 7 63 18 79 24 25 10 31 8 52 -14 44 -47 129 -78 227 -83 264 -13 434 144
476 442 7 52 16 74 40 101 74 85 159 267 180 389 25 136 9 331 -37 471 -11 33
-23 89 -26 125 -43 405 -346 691 -886 835 -47 13 -97 26 -112 29 -22 5 -36 25
-83 118 -76 152 -142 244 -260 367 -276 287 -661 471 -1099 525 -83 10 -90 13
-96 36 -18 62 -94 201 -144 261 -99 121 -291 248 -452 300 -67 21 -70 24 -66
50 10 67 -101 109 -140 54z m73 -25 c25 -14 24 -46 -2 -60 -16 -9 -25 -8 -40
6 -23 21 -24 28 -3 48 18 19 20 19 45 6z m703 -711 c4 -3 9 -36 13 -73 6 -69
26 -103 44 -75 10 14 6 72 -7 125 -7 26 -6 26 42 19 225 -30 504 -101 489
-124 -2 -5 -32 -11 -66 -15 -34 -4 -105 -18 -157 -32 -53 -13 -102 -24 -109
-24 -22 0 -174 -74 -246 -119 -123 -78 -220 -204 -272 -356 -30 -87 -31 -226
-1 -460 65 -513 109 -595 287 -542 52 16 181 95 459 282 202 135 435 273 505
298 76 28 220 67 289 78 95 16 273 6 366 -20 41 -12 101 -28 133 -37 68 -18
193 -73 305 -133 90 -48 233 -175 308 -272 55 -72 109 -187 119 -253 l7 -49
-29 20 c-93 66 -214 48 -317 -47 -150 -138 -168 -409 -34 -498 32 -21 52 -26
102 -27 33 0 75 4 91 9 30 8 29 8 -15 -39 -60 -63 -203 -157 -325 -215 -117
-55 -308 -126 -380 -140 -27 -5 -99 -21 -160 -35 -154 -35 -316 -55 -453 -55
l-117 0 60 29 c68 32 97 60 120 113 54 130 -31 275 -212 365 -74 36 -74 37
-206 37 -142 1 -173 -7 -242 -59 -41 -32 -85 -116 -85 -164 0 -45 37 -126 80
-174 18 -21 30 -40 28 -42 -3 -3 -72 29 -154 71 -135 70 -341 199 -404 254
-45 40 -243 166 -325 207 -102 52 -206 69 -316 52 -171 -26 -275 -129 -325
-319 -15 -60 -19 -267 -5 -338 l9 -44 -52 7 c-152 21 -272 77 -383 179 -130
119 -226 254 -414 583 -13 23 -45 73 -72 112 -144 210 -266 270 -419 207 l-57
-23 14 34 c19 45 110 140 159 165 126 65 322 92 484 68 62 -9 86 -9 91 -1 4 6
3 44 -2 83 -17 132 20 321 104 527 45 110 160 317 207 371 36 42 41 67 15 77
-31 12 -257 -15 -371 -45 -62 -16 -110 -26 -105 -22 62 55 204 143 326 203
309 152 705 255 1137 297 95 9 435 8 444 -1z m750 -194 c131 -58 359 -233 475
-364 108 -123 250 -343 251 -388 0 -9 -16 -13 -48 -13 -132 0 -326 -42 -467
-101 -148 -62 -148 -62 -546 -324 -281 -184 -379 -244 -436 -262 -47 -15 -54
-15 -76 0 -55 36 -82 149 -132 543 -29 233 -30 268 -10 366 33 158 114 273
269 380 104 72 284 141 415 159 243 34 238 34 305 4z m-2245 -306 c-6 -12 -36
-60 -66 -107 -31 -47 -78 -135 -105 -195 -100 -222 -128 -342 -128 -551 l0
-98 -30 6 c-169 33 -353 8 -520 -73 l-60 -29 0 71 c0 103 26 286 51 359 58
168 149 322 265 447 106 115 304 183 547 190 56 1 57 0 46 -20z m-734 -1283
c23 -14 62 -47 86 -74 43 -47 159 -227 213 -327 74 -140 214 -342 301 -434
134 -142 361 -249 511 -239 l49 3 -1 40 c-1 22 -5 90 -9 150 -8 122 11 256 47
328 55 109 192 186 334 187 119 0 214 -48 509 -255 116 -81 217 -150 225 -153
8 -3 40 -22 70 -43 58 -39 193 -109 209 -109 6 0 34 -11 63 -24 29 -13 92 -36
139 -50 275 -84 559 -92 880 -26 435 90 721 214 927 405 106 98 192 229 223
335 l12 45 15 -55 c9 -33 15 -108 15 -190 1 -112 -2 -148 -21 -213 -82 -287
-270 -476 -622 -625 -113 -48 -350 -137 -435 -164 -86 -27 -340 -85 -475 -109
-148 -26 -444 -37 -561 -20 -224 32 -279 60 -424 211 -231 241 -282 288 -361
334 -121 71 -189 91 -314 91 -89 0 -113 -4 -156 -23 -129 -59 -203 -214 -204
-429 0 -72 6 -70 -111 -49 -130 23 -305 92 -393 154 -144 102 -239 194 -336
327 -24 33 -54 71 -66 85 -21 24 -193 317 -206 351 -14 35 -132 182 -161 200
-40 24 -116 25 -163 3 -76 -36 -127 -125 -157 -270 l-13 -68 -27 72 c-66 178
-72 323 -19 437 43 90 91 139 186 186 70 35 87 39 130 35 26 -3 67 -17 91 -30z
m4662 -6 c42 -25 61 -56 75 -123 31 -147 -76 -330 -216 -369 -130 -38 -216 35
-216 184 0 114 84 248 189 303 58 30 124 32 168 5z m-4682 -424 c37 -38 165
-236 165 -254 0 -4 12 -25 27 -47 15 -22 56 -87 91 -145 75 -122 167 -243 245
-319 l55 -53 -19 -57 c-27 -78 -94 -187 -146 -237 -24 -24 -71 -56 -105 -73
-52 -26 -73 -31 -136 -31 -105 0 -143 14 -215 81 -78 71 -118 139 -167 276
-62 177 -83 300 -84 503 -1 190 5 218 56 302 36 58 98 98 152 98 33 0 46 -7
81 -44z m2996 -102 c110 -33 220 -108 254 -174 25 -48 28 -121 8 -160 -23 -44
-92 -96 -146 -111 -161 -43 -382 31 -471 160 -56 80 -44 193 26 242 81 58 218
76 329 43z m-1203 -520 c126 -42 224 -119 405 -322 59 -65 133 -138 166 -162
54 -40 61 -49 67 -88 17 -114 -28 -300 -95 -394 -22 -30 -64 -71 -93 -92 -123
-84 -311 -132 -422 -107 -240 54 -443 317 -495 642 -24 148 -8 328 37 415 23
45 80 100 121 116 78 31 199 28 309 -8z m2807 -139 c-7 -38 -19 -87 -28 -107
-33 -78 -124 -180 -192 -215 -11 -6 -55 -16 -98 -23 -121 -20 -250 8 -296 64
-10 11 12 23 121 66 224 88 442 207 486 265 9 13 18 22 18 22 1 -1 -4 -33 -11
-72z"/>
<path d="M1573 4003 c-12 -4 -138 -252 -178 -348 -41 -99 -116 -339 -135 -431
-15 -74 -20 -130 -18 -210 l3 -109 35 -18 c159 -80 406 -211 410 -217 3 -5 41
-25 85 -45 279 -128 407 -141 640 -64 131 44 169 69 199 131 14 29 28 74 31
99 17 122 -87 431 -210 624 -19 30 -35 57 -35 60 0 4 -25 46 -56 93 -99 152
-212 251 -389 339 -83 42 -350 109 -382 96z m227 -83 c308 -105 466 -260 663
-652 45 -89 88 -185 95 -213 6 -27 19 -75 27 -105 23 -84 20 -178 -8 -231 -31
-59 -82 -90 -202 -125 -85 -25 -118 -29 -215 -29 -159 0 -229 24 -495 170 -66
36 -180 96 -254 133 l-134 67 6 115 c10 180 80 433 177 636 27 58 50 111 50
117 0 7 19 45 41 86 l41 74 57 -6 c31 -3 99 -19 151 -37z"/>
<path d="M606 1785 c-3 -10 6 -20 29 -31 60 -28 80 -105 49 -184 -17 -42 -9
-70 16 -55 42 26 54 161 19 220 -32 53 -100 84 -113 50z"/>
<path d="M2323 1264 c-4 -12 7 -27 36 -51 83 -69 111 -169 82 -285 -19 -73
-16 -96 13 -85 23 9 41 83 41 172 0 75 -3 85 -35 139 -31 51 -104 126 -124
126 -4 0 -9 -7 -13 -16z"/>
</g>
</svg>
