<?xml version="1.0" standalone="no"?>
<!DOCTYPE svg PUBLIC "-//W3C//DTD SVG 20010904//EN"
 "http://www.w3.org/TR/2001/REC-SVG-20010904/DTD/svg10.dtd">
<svg version="1.0" xmlns="http://www.w3.org/2000/svg"
 width="525.000000pt" height="328.000000pt" viewBox="0 0 525.000000 328.000000"
 preserveAspectRatio="xMidYMid meet">

<g transform="translate(0.000000,328.000000) scale(0.100000,-0.100000)"
fill="#000000" stroke="none">
<path d="M0 1640 l0 -1640 2625 0 2625 0 0 1640 0 1640 -2625 0 -2625 0 0
-1640z m2620 479 c107 -13 166 -37 339 -138 76 -45 144 -81 152 -81 10 0 9 -4
-3 -17 -16 -15 -25 -11 -135 55 -153 91 -227 127 -288 141 -100 21 -315 31
-480 21 -192 -12 -315 -40 -489 -112 -189 -78 -280 -105 -446 -131 -188 -31
-170 -34 35 -7 178 23 215 24 403 8 l142 -12 0 -26 c0 -23 -5 -26 -61 -37 -50
-10 -68 -9 -102 4 -54 19 -172 20 -217 1 -31 -13 -41 -13 -90 3 -61 19 -279
41 -322 32 -28 -5 -29 -6 -42 -98 -3 -16 -3 -2 -1 32 4 75 8 83 45 83 15 0 97
12 182 26 165 27 270 59 433 128 128 55 270 101 356 116 164 28 392 32 589 9z
m-292 -56 c-10 -2 -26 -2 -35 0 -10 3 -2 5 17 5 19 0 27 -2 18 -5z m-95 -10
c-7 -2 -19 -2 -25 0 -7 3 -2 5 12 5 14 0 19 -2 13 -5z m-83 -18 c-46 -18 -64
-17 -25 0 17 8 37 14 45 14 8 0 -1 -7 -20 -14z m-60 -19 c0 -2 -26 -19 -57
-39 -63 -39 -131 -103 -120 -113 4 -4 181 -13 394 -20 214 -7 415 -14 448 -15
l60 -2 -65 -7 -65 -7 84 -1 c46 -1 81 -5 77 -9 -4 -5 -228 -8 -497 -8 l-489 0
0 23 c0 19 6 22 38 23 20 1 29 3 20 6 -27 7 -22 29 15 68 34 37 157 116 157
101z m774 -126 l31 -32 -39 26 c-22 15 -53 26 -72 26 -18 0 -36 5 -40 11 -5 9
6 10 41 7 36 -5 55 -13 79 -38z m-1739 1 l60 -19 -50 -6 c-27 -4 -60 -8 -72
-10 -25 -3 -26 -2 -17 32 8 26 4 26 79 3z m2445 -36 c302 -26 604 -79 679
-120 34 -19 23 -19 -29 0 -24 8 -48 14 -54 13 -6 -1 -29 4 -51 10 -22 7 -67
12 -100 13 -45 1 -54 3 -35 9 21 7 22 8 5 9 -11 1 -74 8 -140 15 -66 8 -244
22 -395 31 -151 9 -286 19 -300 22 -24 5 -24 6 -5 14 24 11 181 5 425 -16z
m-306 -58 c572 -16 629 -19 598 -32 -15 -7 -44 -26 -64 -43 -23 -21 -38 -28
-45 -21 -23 23 -439 69 -630 69 l-62 0 -4 -37 -4 -38 -1 43 -2 42 -91 0 c-82
0 -90 2 -78 16 10 12 28 15 83 12 39 -3 174 -7 300 -11z m-1651 -24 c-18 -2
-48 -2 -65 0 -18 2 -4 4 32 4 36 0 50 -2 33 -4z m-118 -13 c-27 -12 -43 -12
-25 0 8 5 22 9 30 9 10 0 8 -3 -5 -9z m225 -15 c17 -9 30 -18 30 -21 0 -4 -59
23 -69 32 -10 9 13 3 39 -11z m160 -5 c6 -11 8 -20 6 -20 -3 0 -10 9 -16 20
-6 11 -8 20 -6 20 3 0 10 -9 16 -20z m238 13 c-10 -2 -28 -2 -40 0 -13 2 -5 4
17 4 22 1 32 -1 23 -4z m-689 -16 c-2 -2 -26 -23 -54 -47 l-50 -43 47 47 c26
25 50 46 54 46 4 0 5 -1 3 -3z m236 -24 c201 -68 220 -357 30 -456 -28 -15 62
-16 1070 -17 605 0 1117 -3 1138 -6 46 -7 47 0 2 22 -50 23 -110 95 -125 149
-63 225 185 411 377 282 161 -108 147 -342 -26 -432 l-46 -24 100 -2 c55 -2
-28 -6 -185 -10 -322 -8 -2408 -7 -2775 1 -235 5 -236 6 -70 8 94 1 208 5 253
9 78 6 82 7 55 18 -40 17 -111 100 -123 144 -24 87 -6 178 48 241 70 82 172
109 277 73z m125 -18 c13 -14 21 -25 18 -25 -2 0 -15 11 -28 25 -13 14 -21 25
-18 25 2 0 15 -11 28 -25z m1823 18 c-7 -2 -19 -2 -25 0 -7 3 -2 5 12 5 14 0
19 -2 13 -5z m227 4 c0 -2 -15 -16 -32 -33 l-33 -29 29 33 c28 30 36 37 36 29z
m396 -29 l29 -33 -32 29 c-31 28 -38 36 -30 36 2 0 16 -15 33 -32z m90 1 c3
-6 -5 -3 -20 6 -14 10 -26 19 -26 22 0 7 39 -17 46 -28z m-676 -4 c0 -8 -3
-16 -7 -18 -5 -3 -8 5 -8 18 0 13 3 21 8 18 4 -2 7 -10 7 -18z m-2623 -17 c-3
-8 -6 -5 -6 6 -1 11 2 17 5 13 3 -3 4 -12 1 -19z m3343 -13 c13 -14 21 -25 18
-25 -2 0 -15 11 -28 25 -13 14 -21 25 -18 25 2 0 15 -11 28 -25z m-819 -33
c-9 -17 -8 -21 7 -25 9 -3 -59 -5 -152 -6 -93 0 -167 1 -165 4 3 2 41 5 84 6
66 1 84 5 104 23 l24 21 -12 -22 c-9 -18 -9 -23 1 -23 6 0 23 10 36 23 l25 22
-12 -22 c-10 -20 -9 -23 8 -23 11 0 28 11 38 24 21 28 29 27 14 -2z m67 6 c-8
-12 -20 -24 -26 -26 -7 -2 -2 8 11 22 27 32 34 33 15 4z"/>
<path d="M1517 1646 c-50 -19 -76 -42 -98 -91 -24 -52 -24 -106 0 -153 23 -46
46 -67 94 -87 48 -20 93 -19 143 4 160 73 119 316 -56 336 -27 3 -60 -1 -83
-9z"/>
<path d="M3969 1650 c-70 -21 -129 -100 -129 -171 0 -19 10 -55 23 -79 66
-132 248 -132 315 0 27 55 28 101 2 155 -38 79 -129 120 -211 95z"/>
</g>
</svg>
